<?xml version="1.0" encoding="UTF-8"?>
<svg id="Layer_1" xmlns="http://www.w3.org/2000/svg" version="1.1" viewBox="0 0 262.73 174.33">
  <!-- Generator: Adobe Illustrator 29.8.2, SVG Export Plug-In . SVG Version: 2.1.1 Build 3)  -->
  <defs>
    <style>
      .st0 {
        fill: #fff;
      }
    </style>
  </defs>
  <g>
    <path class="st0" d="M164.28,43.91s-.08-.03-.11-.05v-.03s.08.05.11.08Z"/>
    <path class="st0" d="M209.7,123.82c-44.81,19.58-117.17,19.71-160.79,0-1.16,11.68-1.61,21.62-1.03,31.58,50.78,25.99,116.62,24.42,162.19.15,2.32-10.64,1.4-20.6-.37-31.73h0ZM58.6,150.67c-3.42,0-6.19-3.75-6.19-8.37s2.77-8.36,6.19-8.36,6.19,3.74,6.19,8.36-2.77,8.37-6.19,8.37ZM89.62,162.73c-4.57,0-8.27-3.71-8.27-8.28s3.7-8.27,8.27-8.27,8.28,3.7,8.28,8.27-3.71,8.28-8.28,8.28ZM130.08,167.06c-5.77,0-10.44-4.67-10.44-10.44s4.67-10.44,10.44-10.44,10.44,4.67,10.44,10.44-4.67,10.44-10.44,10.44ZM172.98,162.73c-4.57,0-8.27-3.71-8.27-8.28s3.7-8.27,8.27-8.27,8.28,3.7,8.28,8.27-3.71,8.28-8.28,8.28ZM201.26,150.67c-3.42,0-6.19-3.75-6.19-8.37s2.77-8.36,6.19-8.36,6.18,3.74,6.18,8.36-2.77,8.37-6.18,8.37Z"/>
  </g>
  <path class="st0" d="M205.1,93.26c-.85.29-1.69.53-2.54.74l5.65,21.8c-37.86,19.95-118.7,21.93-155.93,1.22-.69-.4-1.35-.79-2.01-1.19l6.58-23.49c-14.16-6.47-29.83-12.95-38.33-26.34C7.03,47.93-1.29,26.27,0,3.83c8.08,34.85,39.21,60.82,76.43,61.11,3.43-3.33,7.16-6.31,11.12-8.96l9.53-6.18,2.04,12.02,9.93,51.33.9-55.32.18-15.97c5.94-1.66,12.18-2.64,18.6-2.8.85-.05,1.69-.08,2.56-.08.21,0,.45,0,.66.03,6.55.03,12.92,1.29,19,2.85l.08,16.13.32,55.32,10.38-51.41,2.43-11.97s.08.03.11.05c6.34,2.91,12.23,6.63,17.54,11.04,1.48,1.22,2.93,2.51,4.31,3.86,36.8-1.13,67.77-25.95,75.32-60.71.11-.51.24-1.03.4-1.53.57-1.83.49-1.41.89-2.64-1.64,43.38-17.91,81.53-57.65,93.26h.02Z"/>
</svg>