<?xml version="1.0" encoding="UTF-8"?>
<svg id="Layer_1" data-name="Layer 1" xmlns="http://www.w3.org/2000/svg" viewBox="0 0 474.18 369.26">
  <defs>
    <style>
      .cls-1 {
        fill: #fefefe;
      }

      .cls-1, .cls-2, .cls-3 {
        fill-rule: evenodd;
      }

      .cls-2 {
        fill: #d68e44;
      }

      .cls-4 {
        stroke: #965a28;
      }

      .cls-4, .cls-5 {
        fill: none;
        stroke-width: 1.46px;
      }

      .cls-5 {
        stroke: #fefefe;
      }

      .cls-3 {
        fill: #965a28;
      }
    </style>
  </defs>
  <path id="Fill-1" class="cls-2" d="M51.71,195.53l.1-5.17s0,0,0,0c.53,8.54,3.23,14.47,9.34,20.46l13.42,10.15c11.32,6.18,18.16,17.08,27.37,26.39l9.53,10.52s0,0,0,0l8.47,13.12c3.43,6.57.46,1.29,2.77,8.33l9.07,17.2h0c1.77,5.41,3.38,13.53,3.36,18.34-.04,9.95-.15,13.49-.65,23.62h0s-3.26,8.55-3.26,8.55c0,0,0,0,0,0,0,0-16.13,22.21-16.13,22.21l43.21-7.42c4.37-.89,28.8-13.34,32.57-15.72l17.27-9.03,6.79-3.56c7.69-4.08,7.38-4.92,16.72-7.98,10.17-3.34,21.42-11.8,28.25-17.52l8.1-8.9h0s44.65-25.9,44.65-25.9l4.89-3.14c13-8.35,17.47-23.7,15.68-39.05-.4-3.46,8.15-5.36,15.95-6.83,6.48-1.22,12.72-3.48,18.5-6.64l20.73-11.33c12.92-6.66,26.65-16.98,34.46-29.24,6.21-9.74,4.78-41.75,4.78-41.81h0c9.43-13.61,20.39-17.17,34.07-34.94,12.57-16.33,12.42-34.63,12.42-34.63C476,10.41,377.33-1.15,331.87.09l-80.15,7.73c-13.05,2.3-30.55,3.55-52.86,8.89-2.08.5-74.85,23.49-74.85,23.49-5.56,1.7-15.07,5.67-20.35,8.1C62.64,67.21,27.45,83.26,4.6,123.02c0,0-10.72,21.69.56,41.66l11.38,10.97s6.72,5.7,6.72,5.7c9.43,8.73,17.48,10.33,28.45,14.18"/>
  <path id="Fill-5" class="cls-3" d="M248.02,151.53c-177.01,36.29-209.04-.11-211.33-11.75-2.3-11.65,28.25-55.34,183.35-85.07,155.09-29.72,200.45-3.03,202.75,8.61,2.3,11.64,2.24,51.93-174.77,88.21M461,59.24c-3.95-19.99-61.2-69.86-244.74-35.2C32.73,58.69.4,129.7,4.34,149.68c3.94,19.98,46.13,84.96,255.37,41.42,209.25-43.54,205.22-111.87,201.29-131.85"/>
  <path id="Fill-7" class="cls-3" d="M96.85,238.1s29.94,33.1,111.83,33.1,110.36-32.09,110.36-32.09c0,0,24.04,53.48-104.13,53.48-100.57,0-118.05-54.48-118.05-54.48"/>
  <path id="Fill-9" class="cls-3" d="M125.1,278.45s28.05,32.78,84.8,32.78c39.02,0,44.33-6.18,44.33-6.18,0,0-7.1,23.84-56.76,23.84s-72.38-38.97-72.38-50.44"/>
  <path id="Fill-11" class="cls-3" d="M372.61,165.96c-17.93,35.92-145.66,58.58-212.59,58.01-64-.55-103.52-24.08-103.52-24.08,0,0,17.09,47.26,137.09,48.28,120,1.03,221.74-45.05,222.08-83.14.03-5.73-1.82-10.94-5.08-15.71-10.93,5.61-23.53,11.18-37.98,16.64"/>
  <path id="Fill-13" class="cls-3" d="M264.68,111.14c-73.05-.65-151.68,28.09-151.68,28.09,58.1-18.67,148.51-23.42,206.06-13.04,12.32-3.83,22.95-7.64,32.04-11.38-24.93-5.43-58.48-3.41-86.41-3.67"/>
  <path id="Stroke-15" class="cls-4" d="M121.07,133.17c20.63-5.89,47.95-11.79,80.71-14.12"/>
  <path id="Fill-17" class="cls-3" d="M92.82,144.49c14.63.6,33.53,3.53,46.41,8.86l-15-18.71.83-23.66c-7.21,11.63-20.75,24.73-32.24,33.51"/>
  <path id="Fill-19" class="cls-3" d="M157.39,364.85c-3.31-.03-9.4-.53-16.08-3.9-7.42-3.73-11.77-9.07-13.76-11.87l-10.51,20.18"/>
  <path id="Fill-21" class="cls-1" d="M254.12,147.5c-177.05,36.29-209.08-.11-211.37-11.75-2.3-11.65,28.26-55.34,183.39-85.07,155.12-29.72,200.49-3.03,202.79,8.61,2.3,11.64,2.25,51.93-174.8,88.21M467.14,55.21c-3.95-19.99-61.22-69.86-244.79-35.2C38.79,54.66,6.46,125.66,10.39,145.64c3.95,19.98,46.14,84.96,255.42,41.42,209.24-42.37,204.98-104.91,201.33-131.85"/>
  <path id="Fill-23" class="cls-1" d="M96.85,237.57s34.6,27.98,116.22,27.98,110.01-31.48,110.01-31.48c0,0,23.96,52.46-103.8,52.46-100.25,0-122.43-48.96-122.43-48.96"/>
  <path id="Fill-25" class="cls-1" d="M125.1,278.45s32.63,28.56,89.08,28.56c38.81,0,44.1-6.25,44.1-6.25-.05.01-7.16,24.13-56.45,24.1-49.38-.03-76.72-34.81-76.72-46.41"/>
  <path id="Fill-27" class="cls-2" d="M139.44,316.79l-10.3,32.83,3.41,3.33c3.47,3.39,7.52,6.15,11.95,8.17l8.93,2.08,7.7-2.41,22.48-11.68-16.02,2.65c-6.39-.73-11.62-1.34-16.89-4.12-5.7-3.01-11.27-30.84-11.27-30.84"/>
  <path id="Fill-29" class="cls-1" d="M376.73,161.92c-17.89,35.92-145.36,58.58-212.16,58.01-63.87-.55-108.07-19.53-108.07-19.53,0,0,21.82,42.71,141.57,43.73,119.77,1.03,221.29-45.05,221.63-83.15.04-5.73-1.81-10.94-5.07-15.71-10.91,5.61-23.48,11.18-37.9,16.64"/>
  <path id="Fill-31" class="cls-1" d="M267.89,104.94c-72.65-.61-150.85,26.22-150.85,26.22,57.78-17.43,142.94-17.45,200.18-7.76,12.25-3.57,22.82-7.13,31.86-10.63-24.79-5.07-53.41-7.59-81.19-7.83"/>
  <path id="Stroke-33" class="cls-5" d="M127.12,129.14c20.63-5.89,47.95-11.79,80.71-14.12"/>
  <path id="Fill-35" class="cls-1" d="M102.91,138.44c14.63.6,33.52,3.53,46.41,8.86l-15-18.71.83-23.66c-7.21,11.63-20.75,24.73-32.24,33.51"/>
  <path id="Fill-37" class="cls-1" d="M161.42,358.79c-3.31-.03-9.4-.53-16.08-3.9-7.42-3.73-11.77-9.07-13.76-11.87l-10.51,20.18"/>
  <path id="Fill-39" class="cls-3" d="M136.7,314.77s18.47,29.22,65.08,24.79c0,0-26.28,23.1-51.33,8.97-21.98-12.39-13.74-33.76-13.74-33.76"/>
  <path id="Fill-41" class="cls-1" d="M137.42,314.77s18.84,29.03,66.38,24.63c0,0-21.99,18.43-47.54,4.4-22.42-12.32-18.83-29.03-18.83-29.03"/>
</svg>