<?xml version="1.0" encoding="UTF-8"?>
<svg id="Layer_1" xmlns="http://www.w3.org/2000/svg" version="1.1" viewBox="0 0 512 512">
  <!-- Generator: Adobe Illustrator 29.8.2, SVG Export Plug-In . SVG Version: 2.1.1 Build 3)  -->
  <defs>
    <style>
      .st0 {
        fill: #fefefe;
        fill-rule: evenodd;
      }

      .st1, .st2 {
        fill: none;
      }

      .st2 {
        stroke: #fefefe;
        stroke-width: 1.46px;
      }
    </style>
  </defs>
  <path id="Stroke-15" class="st1" d="M140.07,203.17c20.63-5.89,47.95-11.79,80.71-14.12"/>
  <path id="Fill-21" class="st0" d="M273.12,217.5c-177.05,36.29-209.08-.11-211.37-11.75-2.3-11.65,28.26-55.34,183.39-85.07,155.12-29.72,200.49-3.03,202.79,8.61,2.3,11.64,2.25,51.93-174.8,88.21M486.14,125.21c-3.95-19.99-61.22-69.86-244.79-35.2C57.79,124.66,25.46,195.66,29.39,215.64c3.95,19.98,46.14,84.96,255.42,41.42,209.24-42.37,204.98-104.91,201.33-131.85"/>
  <path id="Fill-23" class="st0" d="M115.85,307.57s34.6,27.98,116.22,27.98,110.01-31.48,110.01-31.48c0,0,23.96,52.46-103.8,52.46-100.25,0-122.43-48.96-122.43-48.96"/>
  <path id="Fill-25" class="st0" d="M144.1,348.45s32.63,28.56,89.08,28.56c38.81,0,44.1-6.25,44.1-6.25-.05.01-7.16,24.13-56.45,24.1-49.38-.03-76.72-34.81-76.72-46.41"/>
  <path id="Fill-29" class="st0" d="M395.73,231.92c-17.89,35.92-145.36,58.58-212.16,58.01-63.87-.55-108.07-19.53-108.07-19.53,0,0,21.82,42.71,141.57,43.73,119.77,1.03,221.29-45.05,221.63-83.15.04-5.73-1.81-10.94-5.07-15.71-10.91,5.61-23.48,11.18-37.9,16.64"/>
  <path id="Fill-31" class="st0" d="M286.89,174.94c-72.65-.61-150.85,26.22-150.85,26.22,57.78-17.43,142.94-17.45,200.18-7.76,12.25-3.57,22.82-7.13,31.86-10.63-24.79-5.07-53.41-7.59-81.19-7.83"/>
  <path id="Stroke-33" class="st2" d="M146.12,199.14c20.63-5.89,47.95-11.79,80.71-14.12"/>
  <path id="Fill-35" class="st0" d="M121.91,208.44c14.63.6,33.52,3.53,46.41,8.86l-15-18.71.83-23.66c-7.21,11.63-20.75,24.73-32.24,33.51"/>
  <path id="Fill-37" class="st0" d="M180.42,428.79c-3.31-.03-9.4-.53-16.08-3.9-7.42-3.73-11.77-9.07-13.76-11.87l-10.51,20.18"/>
  <path id="Fill-41" class="st0" d="M156.42,384.77s18.84,29.03,66.38,24.63c0,0-21.99,18.43-47.54,4.4-22.42-12.32-18.83-29.03-18.83-29.03"/>
</svg>